PathFileType	4	(X/Y/Z)	c:/Users/goper/Files/vsCode/490R/osim_files/C11/C11_Static_03.trc
DataRate	CameraRate	NumFrames	NumMarkers	Units                	OrigDataRate	OrigDataStartFrame	OrigNumFrames
120.00	120.00	5	36	mm	120.0	1	536
                Frame#	Time	LPSIS			LASIS			LTH1			LTH2			LTH3			LTH4			LLFE			LMFE			LSH1			LSH2			LSH3			LSH4			LLMAL			LMMAL			LCAL			LMTP5			LTOE			LMTP1			RPSIS			RASIS			RTH1			RTH2			RTH3			RTH4			RLFE			RMFE			RSH1			RSH2			RSH3			RSH4			RLMAL			RMMAL			RCAL			RMTP1			RTOE			RMTP5		
		X1	Y1	Z1	X2	Y2	Z2	X3	Y3	Z3	X4	Y4	Z4	X5	Y5	Z5	X6	Y6	Z6	X7	Y7	Z7	X8	Y8	Z8	X9	Y9	Z9	X10	Y10	Z10	X11	Y11	Z11	X12	Y12	Z12	X13	Y13	Z13	X14	Y14	Z14	X15	Y15	Z15	X16	Y16	Z16	X17	Y17	Z17	X18	Y18	Z18	X19	Y19	Z19	X20	Y20	Z20	X21	Y21	Z21	X22	Y22	Z22	X23	Y23	Z23	X24	Y24	Z24	X25	Y25	Z25	X26	Y26	Z26	X27	Y27	Z27	X28	Y28	Z28	X29	Y29	Z29	X30	Y30	Z30	X31	Y31	Z31	X32	Y32	Z32	X33	Y33	Z33	X34	Y34	Z34	X35	Y35	Z35	X36	Y36	Z36

1	0.00000	-349.87759	1007.90704	456.18381	-177.06538	1008.03064	378.50220	-307.63840	638.13672	304.09549	-307.45392	590.61554	299.06268	-248.62865	634.17267	289.27438	-256.30234	588.08173	289.47064	-291.42685	516.42084	285.02103	-272.35980	501.71103	393.14471	-353.32224	415.93634	270.83463	-355.19754	372.77902	265.01877	-293.30994	409.49146	258.85687	-303.31033	365.80627	256.20294	-342.32205	97.07443	290.70944	-304.99966	110.46999	381.98215	-396.58524	60.05387	349.36420	-234.41624	40.08069	247.43259	-156.55812	57.11789	309.77917	-192.14865	45.19926	359.52148	-344.22055	1021.70532	539.99451	-178.15756	999.43024	614.75903	-275.04987	650.07922	682.17194	-273.24176	606.28363	679.85712	-213.21208	645.58582	670.51135	-221.44707	603.20453	670.77496	-261.38065	516.24097	667.15271	-288.11966	490.96835	556.95013	-337.94287	414.74258	692.34186	-336.33057	368.51431	693.99963	-276.05579	408.73767	687.67596	-283.86490	362.20517	692.51129	-338.77036	98.61090	666.95032	-310.63724	105.65445	571.95203	-399.79974	60.69561	615.22211	-183.89201	49.08414	597.72473	-180.84331	61.79222	647.80792	-222.80307	39.02398	708.30865
2	0.00833	-349.55466	1007.84863	456.20050	-176.69258	1008.02448	378.65314	-307.33072	638.17084	304.19104	-307.14154	590.66193	299.14807	-248.34155	634.23071	289.36179	-255.94063	588.15161	289.56287	-291.08490	516.46283	285.10104	-272.17361	501.65738	393.17303	-353.13190	415.98190	270.90994	-355.00253	372.83377	265.05066	-293.00757	409.50320	258.93549	-303.04630	365.86246	256.24734	-342.32062	97.11422	290.71057	-304.98465	110.47119	381.98911	-396.61511	60.09640	349.39252	-234.40005	40.11853	247.42229	-156.53146	57.14462	309.76538	-192.13438	45.21845	359.52200	-343.98807	1021.63403	539.99365	-177.94434	999.50787	614.91144	-274.57516	650.05475	682.22021	-272.79028	606.27704	679.92053	-212.75984	645.62903	670.62738	-221.01509	603.22211	670.87262	-260.72446	516.22693	667.20996	-287.35922	490.94696	556.98547	-337.39893	414.76505	692.36359	-335.89200	368.59152	693.96698	-275.52548	408.69702	687.65973	-283.41275	362.20770	692.50018	-338.73587	98.64954	666.92084	-310.58530	105.68099	571.94177	-399.81256	60.74052	615.14185	-183.84908	49.11944	597.70361	-180.84787	61.77010	647.80646	-222.78091	39.03873	708.30499
3	0.01667	-349.20074	1007.77942	456.19238	-176.38075	1008.06482	378.79092	-306.98535	638.22583	304.26456	-306.77240	590.72308	299.19037	-247.97920	634.27155	289.44955	-255.58281	588.21155	289.63876	-290.74100	516.51202	285.15662	-271.87585	501.65369	393.27609	-352.87628	416.01620	270.95026	-354.77509	372.90787	265.08908	-292.71356	409.54349	259.00735	-302.79318	365.92569	256.32236	-342.29700	97.12598	290.71457	-304.96228	110.47076	381.99350	-396.60562	60.16093	349.40921	-234.37050	40.14961	247.43481	-156.49791	57.18055	309.78345	-192.11853	45.25299	359.55164	-343.77344	1021.56854	539.93591	-177.77264	999.56610	615.06415	-274.07269	650.04303	682.26160	-272.32150	606.27417	679.96167	-212.39555	645.65955	670.71179	-220.46762	603.26617	670.98627	-260.10037	516.17822	667.26581	-286.65298	490.94772	556.94989	-336.76901	414.80417	692.36890	-335.47800	368.65558	693.95111	-274.92825	408.66278	687.69354	-282.94891	362.18906	692.50281	-338.69751	98.67801	666.89459	-310.53439	105.71191	571.90668	-399.76569	60.72643	615.09784	-183.82841	49.13995	597.71704	-180.83223	61.75051	647.84247	-222.78217	39.05259	708.31158
4	0.02500	-348.96185	1007.70178	456.14398	-176.07745	1008.06683	378.89206	-306.63693	638.26880	304.34247	-305.55594	591.92218	298.01361	-247.59572	634.27625	289.51517	-255.05492	588.43585	289.45914	-290.48737	516.53442	285.20602	-271.60706	501.63416	393.34869	-352.69946	416.10385	270.97556	-354.60635	372.97336	265.10458	-292.44189	409.55869	259.06683	-302.55640	365.94766	256.38214	-342.26984	97.12914	290.70200	-304.97849	110.40181	382.00467	-396.61240	60.19965	349.41232	-234.37540	40.11984	247.47295	-156.52293	57.11887	309.82004	-192.15002	45.18970	359.61246	-343.54547	1021.50146	539.85876	-177.69963	999.53467	615.18951	-273.58511	649.97546	682.30780	-271.78268	606.18762	680.02911	-211.97905	645.63666	670.85120	-219.95273	603.21478	671.11469	-259.60379	516.02441	667.32928	-285.92551	490.91040	556.88800	-336.14954	414.79260	692.30304	-334.94016	368.62701	693.93408	-274.43106	408.50293	687.69446	-282.42532	362.05658	692.46606	-338.67062	98.63258	666.88043	-310.47327	105.71481	571.87555	-399.69095	60.64802	615.13623	-183.82388	49.06041	597.76306	-181.02892	61.37499	647.75818	-222.77249	38.99220	708.33405
5	0.03333	-348.75229	1007.64575	456.13672	-175.72411	1008.03961	378.99704	-306.29239	638.29303	304.40527	-305.24191	591.95374	298.07166	-247.16568	634.26007	289.60901	-254.72810	588.39667	289.55899	-290.25760	516.52429	285.25470	-271.22232	501.65878	393.41901	-352.54907	416.19250	270.98718	-354.38599	372.99994	265.13376	-292.20569	409.50363	259.10370	-302.39304	365.89642	256.42090	-342.26379	97.12275	290.70328	-304.98663	110.32896	382.05261	-396.61295	60.18061	349.40131	-234.38736	40.04357	247.49698	-156.54332	57.02750	309.84445	-192.17157	45.12569	359.62360	-343.34998	1021.47412	539.84204	-177.60423	999.52948	615.32928	-273.17380	649.87799	682.34637	-271.25360	606.09979	680.05310	-211.52309	645.55750	671.04529	-219.51430	603.15137	671.21118	-258.97433	515.86053	667.35443	-285.06543	490.86694	556.85992	-335.49307	414.77673	692.24078	-334.35794	368.60571	693.88739	-273.93042	408.28677	687.66919	-281.91641	361.90475	692.42090	-338.59714	98.58421	666.88678	-310.43506	105.67844	571.84766	-399.67334	60.63884	615.19196	-183.82961	48.97366	597.79126	-180.83859	61.57385	647.90704	-222.79684	38.93972	708.35089
